# xmcd
#
# Track frame offsets:
#	211
#	19170
#	36213
#	56113
#	69909
#	91235
#	105724
#	123397
#	142564
#	160806
#
# Disc length: 2400 seconds
#
# Revision: 0
# Processed by: cddbd v1.5PL3 Copyright (c) Steve Scherf et al.
# Submitted via: dBpowerAMP V4.0
#
DISCID=7a095e0a
DTITLE=Automatic Buffalo - Party People
DYEAR=2002
DGENRE=Blues
TTITLE0=Let's Have A Revolution
TTITLE1=Beauty Lies
TTITLE2=What If We Made Love In The End
TTITLE3=Party People
TTITLE4=They Walk With Strangers
TTITLE5=God Knows I Tried
TTITLE6=After All, Life Is Far Too Easy
TTITLE7=We Were Lovers
TTITLE8=Once You Were Lost
TTITLE9=All Men Are Equal
EXTD=
EXTT0=
EXTT1=
EXTT2=
EXTT3=
EXTT4=
EXTT5=
EXTT6=
EXTT7=
EXTT8=
EXTT9=
PLAYORDER=
